<svg xmlns="http://www.w3.org/2000/svg" width="30.499" height="30.503" viewBox="0 0 30.499 30.503"><defs><style>.a{fill:#fff;}</style></defs><path class="a" d="M29.68,13.267l0,0L17.235.822a2.807,2.807,0,0,0-3.971,0L.828,13.258l-.013.013a2.807,2.807,0,0,0,1.869,4.784q.043,0,.087,0h.5v9.157A3.29,3.29,0,0,0,6.553,30.5h4.868a.894.894,0,0,0,.894-.894V22.429a1.5,1.5,0,0,1,1.5-1.5h2.871a1.5,1.5,0,0,1,1.5,1.5v7.179a.894.894,0,0,0,.894.894h4.868a3.29,3.29,0,0,0,3.287-3.286V18.059h.46a2.808,2.808,0,0,0,1.987-4.793Zm0,0" transform="translate(0 0.001)"/></svg>