<svg xmlns="http://www.w3.org/2000/svg" xmlns:xlink="http://www.w3.org/1999/xlink" width="125" height="125" viewBox="0 0 125 125"><defs><style>.a,.d{fill:#ffa200;}.a{stroke:#fff;stroke-width:2px;}.b,.c{fill:#fff;}.c{stroke:#ffa200;}.e{stroke:none;}.f{fill:none;}.g{filter:url(#a);}</style><filter id="a" x="0" y="0" width="125" height="125" filterUnits="userSpaceOnUse"><feOffset input="SourceAlpha"/><feGaussianBlur stdDeviation="10" result="b"/><feFlood flood-opacity="0.161"/><feComposite operator="in" in2="b"/><feComposite in="SourceGraphic"/></filter></defs><g transform="translate(-133 -284)"><g class="g" transform="matrix(1, 0, 0, 1, 133, 284)"><g class="a" transform="translate(30 30)"><rect class="e" width="65" height="65" rx="32.5"/><rect class="f" x="1" y="1" width="63" height="63" rx="31.5"/></g></g><g transform="translate(185 335.089)"><g transform="translate(0 0)"><circle class="b" cx="1.711" cy="1.711" r="1.711" transform="translate(7.677 5.443)"/><path class="b" d="M23.437,37.453a5.27,5.27,0,0,0-2.947-1.4v-8.7a3.422,3.422,0,0,0-.975-2.377A3.321,3.321,0,0,0,17.138,24H3.351a3.422,3.422,0,0,0-2.377.975A3.321,3.321,0,0,0,0,27.351v14.19a3.422,3.422,0,0,0,.975,2.377,3.321,3.321,0,0,0,2.377.975H16.686a5.029,5.029,0,0,0,6.75-7.44ZM1.26,27.351a1.99,1.99,0,0,1,.618-1.45,2.086,2.086,0,0,1,1.474-.618H17.138a2.11,2.11,0,0,1,2.092,2.092v7.416l-3.518-3.518a.638.638,0,0,0-.9,0L9.508,36.6,5.919,32.985a.638.638,0,0,0-.9,0l-3.756,3.8Zm2.068,16.33v-.048a2.086,2.086,0,0,1-1.474-.618,2.169,2.169,0,0,1-.594-1.474V38.594l4.207-4.231,3.589,3.589a.661.661,0,0,0,.9,0l5.3-5.324,3.47,3.494-.214.071a2.208,2.208,0,0,0-.309.1c-.1.024-.19.071-.285.1a.711.711,0,0,0-.19.1,2.21,2.21,0,0,0-.238.119l-.357.214c-.071.048-.119.071-.19.119-.048.024-.071.048-.119.071a2.868,2.868,0,0,0-.57.5,5.028,5.028,0,0,0-1.474,3.565,5.226,5.226,0,0,0,.119,1.046c.024.1.048.166.071.261.071.238.143.475.238.713v.024a4.36,4.36,0,0,0,.309.57Zm19.182,0a3.76,3.76,0,0,1-5.253.048c-.1-.1-.19-.214-.285-.309-.071-.071-.143-.166-.214-.238a2.258,2.258,0,0,1-.238-.4c-.048-.1-.1-.166-.143-.261a2.008,2.008,0,0,1-.119-.4c-.024-.1-.071-.214-.1-.309a3.934,3.934,0,0,1-.071-.761,3.815,3.815,0,0,1,1.093-2.662,3.675,3.675,0,0,1,2.662-1.093A3.815,3.815,0,0,1,22.51,38.38,3.715,3.715,0,0,1,23.6,41.043,3.8,3.8,0,0,1,22.51,43.681Z" transform="translate(0 -24)"/><path class="b" d="M301.155,264.59a.826.826,0,0,0-.214-.143.7.7,0,0,0-.214-.048h-.048a.7.7,0,0,0-.214.048.562.562,0,0,0-.214.143l-1.474,1.474a.639.639,0,0,0,.9.9l.38-.38V269.2a.642.642,0,1,0,1.284,0v-2.615l.38.38a.639.639,0,0,0,.9-.9Z" transform="translate(-280.856 -250.115)"/></g></g><g transform="translate(1.552 -14.448)"><g class="c" transform="translate(206.448 378.448)"><circle class="e" cx="7" cy="7" r="7"/><circle class="f" cx="7" cy="7" r="7.5"/></g><path class="d" d="M7.228,3.424H4.185V.38a.38.38,0,0,0-.761,0V3.424H.38a.38.38,0,0,0,0,.761H3.424V7.228a.38.38,0,1,0,.761,0V4.184H7.228a.38.38,0,1,0,0-.761Zm0,0" transform="translate(209.809 381.809)"/></g></g></svg>